<svg width="334" height="276" viewBox="0 0 334 276" fill="none" xmlns="http://www.w3.org/2000/svg">
<path d="M239.848 0H43.1525C19.32 0 0 19.0448 0 42.5376V233.462C0 256.955 19.32 276 43.1525 276H239.848C263.68 276 283 256.955 283 233.462V42.5376C283 19.0448 263.68 0 239.848 0Z" fill="#092C25"/>
<path d="M43.2484 18H292.788C319.949 18 333.529 29.3301 333.529 51.9904V191.139C333.529 223.713 314.008 240 274.964 240H43.2484C26.273 240 17.7852 232.919 17.7852 218.756C17.6005 146.526 17.2483 103.168 17.7852 39.244C17.7852 25.0813 26.273 18 43.2484 18Z" fill="#80DEB8"/>
<path d="M62.0635 35H276.845C300.223 35 311.912 46.3301 311.912 68.9904V208.139C311.912 240.713 295.109 257 261.504 257H62.0635C47.4525 257 40.147 249.919 40.147 235.756V56.244C40.147 42.0813 47.4525 35 62.0635 35Z" fill="#4DBE92"/>
<path d="M0 65.5C0 65.5 10.5202 65.5 19.0365 65.5C27.5528 65.4999 57.1094 65.5 57.1094 65.5V75.3364C59.1133 95.0093 65.1248 119.6 80.1536 133.371C105.202 155.995 140.269 168.783 170.326 170.75H282.541V233.703C282.541 261.901 268.181 276 239.459 276H43.0826C14.3609 276 0 261.901 0 233.703V65.5Z" fill="#092C25"/>
<path d="M56.3302 65.6396L248.766 65.1396C271.431 65.1396 282.764 76.6191 282.764 99.578V127.939C282.764 133.341 282.764 134.016 282.764 134.016L228.438 134.14C223.428 134.14 217.918 135.14 212.908 137.14C207.898 139.14 204.392 141.14 200.384 143.64C196.316 147.123 191.476 152.187 189.363 157.14C187.863 162.204 186.486 166.612 186.769 172C181.77 172.304 175.77 172.101 170.77 171.494C140.772 169.468 104.373 157.936 79.3743 134.64C63.4456 120.763 56.8311 90.1396 56.3302 88.1396C55.8292 86.1396 56.3302 65.6396 56.3302 65.6396V76.6396V71.6396V65.6396Z" fill="#092C25"/>
<path d="M229.271 134.007L334 134.007C334 134.007 334 133.47 334 142.006V190.409C334 195.742 323.757 203 317.068 203H229.271C217.795 203 206.789 199.366 198.674 192.896C190.559 186.427 186 177.652 186 168.503C186 159.354 190.559 150.58 198.674 144.111C206.789 137.641 217.795 134.007 229.271 134.007Z" fill="#0B5641"/>
<path d="M221.424 186.2C231.108 186.2 238.958 178.365 238.958 168.7C238.958 159.035 231.108 151.2 221.424 151.2C211.741 151.2 203.891 159.035 203.891 168.7C203.891 178.365 211.741 186.2 221.424 186.2Z" fill="#F7B428"/>
</svg>
