<svg width="482" height="520" viewBox="0 0 482 520" fill="none" xmlns="http://www.w3.org/2000/svg">

<path d="M312.848 50H116.152C92.32 50 73 69.0448 73 92.5376V283.462C73 306.955 92.32 326 116.152 326H312.848C336.68 326 356 306.955 356 283.462V92.5376C356 69.0448 336.68 50 312.848 50Z" fill="#092C25"/>
<path d="M116.248 68H365.788C392.949 68 406.529 79.3301 406.529 101.99V241.139C406.529 273.713 387.008 290 347.964 290H116.248C99.2729 290 90.7852 282.919 90.7852 268.756C90.6005 196.526 90.2483 153.168 90.7852 89.244C90.7852 75.0813 99.2729 68 116.248 68Z" fill="#80DEB8"/>
<path d="M135.064 85H349.845C373.223 85 384.912 96.3301 384.912 118.99V258.139C384.912 290.713 368.109 307 334.504 307H135.064C120.453 307 113.147 299.919 113.147 285.756V106.244C113.147 92.0813 120.453 85 135.064 85Z" fill="#4DBE92"/>
<path d="M73 115.5C73 115.5 83.5202 115.5 92.0365 115.5C100.553 115.5 130.109 115.5 130.109 115.5V125.336C132.113 145.009 138.125 169.6 153.154 183.371C178.202 205.995 213.269 218.783 243.326 220.75H355.541V283.703C355.541 311.901 341.181 326 312.459 326H116.083C87.3609 326 73 311.901 73 283.703V115.5Z" fill="#092C25"/>
<path d="M129.33 115.64L321.766 115.14C344.431 115.14 355.764 126.619 355.764 149.578V177.939C355.764 183.341 355.764 184.016 355.764 184.016L301.438 184.14C296.428 184.14 290.918 185.14 285.908 187.14C280.898 189.14 277.392 191.14 273.384 193.64C269.316 197.123 264.476 202.187 262.363 207.14C260.863 212.204 259.486 216.612 259.769 222C254.77 222.304 248.77 222.101 243.77 221.494C213.772 219.468 177.373 207.936 152.374 184.64C136.446 170.763 129.831 140.14 129.33 138.14C128.829 136.14 129.33 115.64 129.33 115.64V126.64V121.64V115.64Z" fill="#092C25"/>
<path d="M302.271 184.007L407 184.007C407 184.007 407 183.47 407 192.006V240.409C407 245.742 396.757 253 390.068 253H302.271C290.795 253 279.789 249.366 271.674 242.896C263.559 236.427 259 227.652 259 218.503C259 209.354 263.559 200.58 271.674 194.111C279.789 187.641 290.795 184.007 302.271 184.007Z" fill="#0B5641"/>
<path d="M294.424 236.2C304.108 236.2 311.958 228.365 311.958 218.7C311.958 209.035 304.108 201.2 294.424 201.2C284.741 201.2 276.891 209.035 276.891 218.7C276.891 228.365 284.741 236.2 294.424 236.2Z" fill="#F7B428"/>
<path d="M51.8642 363.884V383.662H76.8148V396.207H51.8642V417.116H80V430H37V351H80V363.884H51.8642Z" fill="#08281F"/>
<path d="M107 351H90V431H107V351Z" fill="#08281F"/>
<path d="M154.794 369.759C159.859 369.759 164.442 371.007 168.544 373.504C172.645 376.001 175.891 379.549 178.281 384.151C180.67 388.752 181.865 394.084 181.865 400.147C181.865 406.21 180.67 411.578 178.281 416.25C175.891 420.923 172.645 424.543 168.544 427.111C164.442 429.679 159.859 430.963 154.794 430.963C150.371 430.963 146.502 430.089 143.185 428.341C139.868 426.594 137.21 424.329 135.213 421.547V430H120.233V350.82H135.213V379.389C137.139 376.536 139.796 374.217 143.185 372.434C146.573 370.651 150.443 369.759 154.794 369.759ZM150.835 382.92C148.124 382.92 145.574 383.616 143.185 385.007C140.795 386.397 138.869 388.413 137.407 391.052C135.944 393.691 135.213 396.794 135.213 400.361C135.213 403.928 135.944 407.031 137.407 409.67C138.869 412.309 140.795 414.324 143.185 415.715C145.574 417.106 148.124 417.802 150.835 417.802C153.617 417.802 156.203 417.089 158.593 415.662C160.982 414.235 162.908 412.202 164.371 409.563C165.833 406.924 166.564 403.785 166.564 400.147C166.564 396.58 165.833 393.495 164.371 390.891C162.908 388.288 160.982 386.308 158.593 384.953C156.203 383.598 153.617 382.92 150.835 382.92Z" fill="#08281F"/>
<path d="M190 359.263C190 356.912 190.855 354.947 192.564 353.368C194.273 351.789 196.419 351 199 351C201.581 351 203.727 351.789 205.436 353.368C207.145 354.947 208 356.912 208 359.263C208 361.614 207.145 363.579 205.436 365.158C203.727 366.736 201.581 367.526 199 367.526C196.419 367.526 194.273 366.736 192.564 365.158C190.855 363.579 190 361.614 190 359.263ZM206.221 374.176V430H191.57V374.176H206.221Z" fill="#08281F"/>
<path d="M317.108 395.225V430H302.128V397.258C302.128 392.621 300.951 389.072 298.597 386.611C296.243 384.151 293.033 382.92 288.967 382.92C284.901 382.92 281.673 384.151 279.284 386.611C276.894 389.072 275.699 392.621 275.699 397.258V430H260.719V397.258C260.719 392.621 259.542 389.072 257.188 386.611C254.834 384.151 251.624 382.92 247.558 382.92C243.421 382.92 240.157 384.151 237.768 386.611C235.378 389.072 234.183 392.621 234.183 397.258V430H219.203V370.722H234.183V377.891C236.109 375.394 238.588 373.433 241.62 372.006C244.651 370.579 247.986 369.866 251.624 369.866C256.261 369.866 260.398 370.847 264.036 372.808C267.674 374.77 270.492 377.57 272.489 381.208C274.415 377.784 277.215 375.038 280.889 372.969C284.562 370.9 288.539 369.866 292.819 369.866C300.095 369.866 305.962 372.095 310.421 376.554C314.879 381.012 317.108 387.236 317.108 395.225Z" fill="#08281F"/>
<path d="M352.902 369.759C357.325 369.759 361.194 370.651 364.511 372.434C367.828 374.217 370.486 376.464 372.483 379.175V370.722H387.57V430H372.483V421.333C370.557 424.115 367.9 426.415 364.511 428.234C361.123 430.053 357.218 430.963 352.795 430.963C347.802 430.963 343.254 429.679 339.152 427.111C335.051 424.543 331.805 420.923 329.415 416.25C327.026 411.578 325.831 406.21 325.831 400.147C325.831 394.155 327.026 388.841 329.415 384.204C331.805 379.567 335.051 376.001 339.152 373.504C343.254 371.007 347.837 369.759 352.902 369.759ZM356.754 382.92C353.972 382.92 351.404 383.598 349.05 384.953C346.696 386.308 344.788 388.288 343.325 390.891C341.863 393.495 341.132 396.58 341.132 400.147C341.132 403.714 341.863 406.834 343.325 409.509C344.788 412.184 346.714 414.235 349.103 415.662C351.493 417.089 354.043 417.802 356.754 417.802C359.536 417.802 362.14 417.106 364.565 415.715C366.99 414.324 368.916 412.327 370.343 409.723C371.77 407.12 372.483 403.999 372.483 400.361C372.483 396.723 371.77 393.602 370.343 390.998C368.916 388.395 366.99 386.397 364.565 385.006C362.14 383.615 359.536 382.92 356.754 382.92Z" fill="#08281F"/>
<path d="M397.353 411.275H412.44C412.725 413.558 413.849 415.448 415.81 416.946C417.772 418.444 420.215 419.193 423.14 419.193C425.993 419.193 428.222 418.622 429.827 417.481C431.432 416.34 432.235 414.877 432.235 413.094C432.235 411.168 431.254 409.723 429.292 408.76C427.331 407.797 424.21 406.745 419.93 405.604C415.507 404.534 411.887 403.428 409.069 402.287C406.252 401.146 403.826 399.398 401.793 397.044C399.76 394.69 398.744 391.516 398.744 387.521C398.744 384.24 399.689 381.244 401.579 378.533C403.47 375.822 406.18 373.682 409.711 372.113C413.242 370.544 417.398 369.759 422.177 369.759C429.239 369.759 434.874 371.524 439.083 375.055C443.292 378.586 445.61 383.348 446.038 389.34H431.7C431.486 386.986 430.505 385.113 428.757 383.722C427.01 382.331 424.674 381.636 421.749 381.636C419.038 381.636 416.952 382.135 415.489 383.134C414.027 384.133 413.296 385.524 413.296 387.307C413.296 389.304 414.295 390.82 416.292 391.854C418.289 392.889 421.392 393.941 425.601 395.011C429.881 396.081 433.412 397.187 436.194 398.328C438.976 399.469 441.383 401.235 443.416 403.624C445.449 406.014 446.502 409.171 446.573 413.094C446.573 416.518 445.628 419.585 443.737 422.296C441.847 425.007 439.136 427.129 435.605 428.662C432.074 430.196 427.955 430.963 423.247 430.963C418.396 430.963 414.045 430.089 410.193 428.341C406.341 426.594 403.291 424.222 401.044 421.226C398.797 418.23 397.567 414.913 397.353 411.275Z" fill="#08281F"/>
<path d="M57.718 469.51H53.0308V480H48.79V454.146H57.718C59.702 454.146 61.3822 454.487 62.7586 455.169C64.135 455.851 65.1642 456.775 65.8462 457.94C66.5282 459.106 66.8692 460.408 66.8692 461.846C66.8692 463.161 66.5592 464.401 65.9392 465.566C65.3192 466.732 64.3272 467.681 62.9632 468.412C61.5992 469.144 59.8508 469.51 57.718 469.51ZM62.5168 461.846C62.5168 459.019 60.9172 457.606 57.718 457.606H53.0308V466.05H57.718C59.33 466.05 60.5328 465.684 61.3264 464.953C62.12 464.221 62.5168 463.186 62.5168 461.846Z" fill="#0E7B5C"/>
<path d="M88.6872 471.332H73.026C73.15 472.969 73.7576 474.284 74.8488 475.276C75.94 476.268 77.2792 476.764 78.8664 476.764C81.148 476.764 82.76 475.809 83.7024 473.899H88.278C87.658 475.784 86.5358 477.328 84.9114 478.531C83.287 479.733 81.272 480.335 78.8664 480.335C76.9072 480.335 75.1526 479.895 73.6026 479.014C72.0526 478.134 70.8374 476.894 69.957 475.294C69.0766 473.695 68.6364 471.841 68.6364 469.733C68.6364 467.625 69.0642 465.771 69.9198 464.171C70.7754 462.572 71.9782 461.338 73.5282 460.47C75.0782 459.602 76.8576 459.168 78.8664 459.168C80.8008 459.168 82.5244 459.59 84.0372 460.433C85.55 461.276 86.728 462.46 87.5712 463.985C88.4144 465.511 88.836 467.265 88.836 469.249C88.836 470.018 88.7864 470.712 88.6872 471.332ZM84.4092 467.91C84.3844 466.348 83.8264 465.095 82.7352 464.153C81.644 463.21 80.2924 462.739 78.6804 462.739C77.2172 462.739 75.9648 463.204 74.9232 464.134C73.8816 465.064 73.2616 466.323 73.0632 467.91H84.4092Z" fill="#0E7B5C"/>
<path d="M102.509 459.168V463.558H101.43C99.7684 463.558 98.5098 463.979 97.6542 464.822C96.7986 465.666 96.3708 467.129 96.3708 469.212V480H92.13V459.503H96.3708V462.479C96.9908 461.437 97.8154 460.625 98.8446 460.042C99.8738 459.459 101.095 459.168 102.509 459.168Z" fill="#0E7B5C"/>
<path d="M104.424 473.713H108.814C108.888 474.581 109.303 475.307 110.06 475.889C110.816 476.472 111.765 476.764 112.906 476.764C114.096 476.764 115.02 476.534 115.677 476.075C116.334 475.617 116.663 475.028 116.663 474.308C116.663 473.54 116.297 472.969 115.565 472.597C114.834 472.225 113.674 471.816 112.087 471.37C110.55 470.948 109.297 470.539 108.33 470.142C107.363 469.745 106.526 469.138 105.819 468.319C105.112 467.501 104.759 466.422 104.759 465.083C104.759 463.992 105.081 462.993 105.726 462.088C106.371 461.183 107.295 460.47 108.497 459.949C109.7 459.428 111.083 459.168 112.645 459.168C114.976 459.168 116.855 459.757 118.281 460.935C119.707 462.113 120.47 463.719 120.569 465.752H116.328C116.254 464.835 115.882 464.103 115.212 463.558C114.542 463.012 113.637 462.739 112.496 462.739C111.38 462.739 110.525 462.95 109.93 463.372C109.334 463.793 109.037 464.351 109.037 465.046C109.037 465.591 109.235 466.05 109.632 466.422C110.029 466.794 110.512 467.085 111.083 467.296C111.653 467.507 112.496 467.774 113.612 468.096C115.1 468.493 116.322 468.896 117.277 469.305C118.231 469.714 119.056 470.316 119.75 471.109C120.445 471.903 120.804 472.957 120.829 474.271C120.829 475.437 120.507 476.478 119.862 477.396C119.217 478.314 118.306 479.033 117.128 479.554C115.95 480.074 114.567 480.335 112.98 480.335C111.368 480.335 109.923 480.043 108.646 479.461C107.369 478.878 106.358 478.084 105.614 477.08C104.87 476.075 104.474 474.953 104.424 473.713Z" fill="#0E7B5C"/>
<path d="M123.154 469.733C123.154 467.65 123.612 465.802 124.53 464.19C125.448 462.578 126.7 461.338 128.287 460.47C129.874 459.602 131.648 459.168 133.607 459.168C135.566 459.168 137.339 459.602 138.926 460.47C140.514 461.338 141.766 462.578 142.684 464.19C143.601 465.802 144.06 467.65 144.06 469.733C144.06 471.816 143.589 473.664 142.646 475.276C141.704 476.888 140.421 478.134 138.796 479.014C137.172 479.895 135.38 480.335 133.421 480.335C131.486 480.335 129.738 479.895 128.176 479.014C126.613 478.134 125.386 476.894 124.493 475.294C123.6 473.695 123.154 471.841 123.154 469.733ZM139.708 469.733C139.708 468.245 139.422 466.986 138.852 465.957C138.282 464.928 137.525 464.153 136.583 463.632C135.64 463.111 134.624 462.851 133.532 462.851C132.441 462.851 131.431 463.111 130.501 463.632C129.571 464.153 128.833 464.928 128.287 465.957C127.742 466.986 127.469 468.245 127.469 469.733C127.469 471.94 128.033 473.645 129.161 474.848C130.29 476.051 131.71 476.652 133.421 476.652C134.512 476.652 135.535 476.392 136.49 475.871C137.445 475.35 138.22 474.569 138.815 473.527C139.41 472.486 139.708 471.221 139.708 469.733Z" fill="#0E7B5C"/>
<path d="M166.129 467.91V480H161.925V468.542C161.925 466.707 161.466 465.3 160.549 464.32C159.631 463.341 158.379 462.851 156.792 462.851C155.204 462.851 153.946 463.341 153.016 464.32C152.086 465.3 151.621 466.707 151.621 468.542V480H147.38V459.503H151.621V461.846C152.315 461.003 153.202 460.346 154.281 459.875C155.359 459.404 156.506 459.168 157.722 459.168C159.334 459.168 160.778 459.503 162.055 460.172C163.333 460.842 164.331 461.834 165.05 463.148C165.769 464.463 166.129 466.05 166.129 467.91Z" fill="#0E7B5C"/>
<path d="M178.908 459.168C180.52 459.168 181.928 459.484 183.131 460.117C184.333 460.749 185.294 461.536 186.014 462.479V459.503H190.292V480H186.014V476.95C185.294 477.917 184.315 478.723 183.075 479.368C181.835 480.012 180.421 480.335 178.834 480.335C177.073 480.335 175.461 479.882 173.998 478.977C172.535 478.072 171.375 476.807 170.52 475.183C169.664 473.558 169.236 471.717 169.236 469.658C169.236 467.6 169.664 465.777 170.52 464.19C171.375 462.603 172.541 461.369 174.017 460.489C175.492 459.608 177.123 459.168 178.908 459.168ZM179.801 462.851C178.71 462.851 177.693 463.117 176.751 463.651C175.808 464.184 175.046 464.965 174.463 465.994C173.88 467.023 173.589 468.245 173.589 469.658C173.589 471.072 173.88 472.312 174.463 473.378C175.046 474.445 175.815 475.257 176.769 475.815C177.724 476.373 178.735 476.652 179.801 476.652C180.892 476.652 181.909 476.379 182.852 475.834C183.794 475.288 184.557 474.488 185.139 473.434C185.722 472.38 186.014 471.146 186.014 469.733C186.014 468.319 185.722 467.092 185.139 466.05C184.557 465.008 183.794 464.215 182.852 463.669C181.909 463.124 180.892 462.851 179.801 462.851Z" fill="#0E7B5C"/>
<path d="M199.241 452.472V480H195V452.472H199.241Z" fill="#0E7B5C"/>
<path d="M227.955 454.146V457.606H216.981V465.232H225.537V468.691H216.981V480H212.74V454.146H227.955Z" fill="#0E7B5C"/>
<path d="M230.462 454.072C230.462 453.303 230.722 452.658 231.243 452.137C231.764 451.616 232.409 451.356 233.178 451.356C233.922 451.356 234.554 451.616 235.075 452.137C235.596 452.658 235.856 453.303 235.856 454.072C235.856 454.84 235.596 455.485 235.075 456.006C234.554 456.527 233.922 456.787 233.178 456.787C232.409 456.787 231.764 456.527 231.243 456.006C230.722 455.485 230.462 454.84 230.462 454.072ZM235.261 459.503V480H231.02V459.503H235.261Z" fill="#0E7B5C"/>
<path d="M258.719 467.91V480H254.515V468.542C254.515 466.707 254.056 465.3 253.139 464.32C252.221 463.341 250.969 462.851 249.382 462.851C247.794 462.851 246.536 463.341 245.606 464.32C244.676 465.3 244.211 466.707 244.211 468.542V480H239.97V459.503H244.211V461.846C244.905 461.003 245.792 460.346 246.871 459.875C247.949 459.404 249.096 459.168 250.312 459.168C251.924 459.168 253.368 459.503 254.645 460.172C255.923 460.842 256.921 461.834 257.64 463.148C258.359 464.463 258.719 466.05 258.719 467.91Z" fill="#0E7B5C"/>
<path d="M271.498 459.168C273.11 459.168 274.518 459.484 275.721 460.117C276.923 460.749 277.884 461.536 278.604 462.479V459.503H282.882V480H278.604V476.95C277.884 477.917 276.905 478.723 275.665 479.368C274.425 480.012 273.011 480.335 271.424 480.335C269.663 480.335 268.051 479.882 266.588 478.977C265.125 478.072 263.965 476.807 263.11 475.183C262.254 473.558 261.826 471.717 261.826 469.658C261.826 467.6 262.254 465.777 263.11 464.19C263.965 462.603 265.131 461.369 266.607 460.489C268.082 459.608 269.713 459.168 271.498 459.168ZM272.391 462.851C271.3 462.851 270.283 463.117 269.341 463.651C268.398 464.184 267.636 464.965 267.053 465.994C266.47 467.023 266.179 468.245 266.179 469.658C266.179 471.072 266.47 472.312 267.053 473.378C267.636 474.445 268.405 475.257 269.359 475.815C270.314 476.373 271.325 476.652 272.391 476.652C273.482 476.652 274.499 476.379 275.442 475.834C276.384 475.288 277.147 474.488 277.729 473.434C278.312 472.38 278.604 471.146 278.604 469.733C278.604 468.319 278.312 467.092 277.729 466.05C277.147 465.008 276.384 464.215 275.442 463.669C274.499 463.124 273.482 462.851 272.391 462.851Z" fill="#0E7B5C"/>
<path d="M306.329 467.91V480H302.125V468.542C302.125 466.707 301.666 465.3 300.749 464.32C299.831 463.341 298.579 462.851 296.992 462.851C295.404 462.851 294.146 463.341 293.216 464.32C292.286 465.3 291.821 466.707 291.821 468.542V480H287.58V459.503H291.821V461.846C292.515 461.003 293.402 460.346 294.481 459.875C295.559 459.404 296.706 459.168 297.922 459.168C299.534 459.168 300.978 459.503 302.255 460.172C303.533 460.842 304.531 461.834 305.25 463.148C305.969 464.463 306.329 466.05 306.329 467.91Z" fill="#0E7B5C"/>
<path d="M319.48 459.168C321.96 459.168 324.013 459.757 325.637 460.935C327.261 462.113 328.359 463.793 328.929 465.976H324.354C323.982 464.959 323.386 464.165 322.568 463.595C321.75 463.024 320.72 462.739 319.48 462.739C317.744 462.739 316.362 463.353 315.333 464.581C314.303 465.808 313.789 467.526 313.789 469.733C313.789 471.94 314.303 473.664 315.333 474.904C316.362 476.144 317.744 476.764 319.48 476.764C321.936 476.764 323.56 475.685 324.354 473.527H328.929C328.334 475.61 327.218 477.266 325.581 478.493C323.944 479.721 321.911 480.335 319.48 480.335C317.521 480.335 315.785 479.895 314.272 479.014C312.76 478.134 311.575 476.894 310.72 475.294C309.864 473.695 309.436 471.841 309.436 469.733C309.436 467.625 309.864 465.771 310.72 464.171C311.575 462.572 312.76 461.338 314.272 460.47C315.785 459.602 317.521 459.168 319.48 459.168Z" fill="#0E7B5C"/>
<path d="M350.927 471.332H335.266C335.39 472.969 335.998 474.284 337.089 475.276C338.18 476.268 339.519 476.764 341.106 476.764C343.388 476.764 345 475.809 345.942 473.899H350.518C349.898 475.784 348.776 477.328 347.151 478.531C345.527 479.733 343.512 480.335 341.106 480.335C339.147 480.335 337.393 479.895 335.843 479.014C334.293 478.134 333.077 476.894 332.197 475.294C331.317 473.695 330.876 471.841 330.876 469.733C330.876 467.625 331.304 465.771 332.16 464.171C333.015 462.572 334.218 461.338 335.768 460.47C337.318 459.602 339.098 459.168 341.106 459.168C343.041 459.168 344.764 459.59 346.277 460.433C347.79 461.276 348.968 462.46 349.811 463.985C350.654 465.511 351.076 467.265 351.076 469.249C351.076 470.018 351.026 470.712 350.927 471.332ZM346.649 467.91C346.624 466.348 346.066 465.095 344.975 464.153C343.884 463.21 342.532 462.739 340.92 462.739C339.457 462.739 338.205 463.204 337.163 464.134C336.122 465.064 335.502 466.323 335.303 467.91H346.649Z" fill="#0E7B5C"/>
<path d="M378.757 474.718H367.932L366.072 480H361.645L370.908 454.109H375.818L385.081 480H380.617L378.757 474.718ZM377.566 471.258L373.363 459.242L369.122 471.258H377.566Z" fill="#0E7B5C"/>
<path d="M399.603 459.168C401.389 459.168 403.019 459.608 404.495 460.489C405.971 461.369 407.13 462.603 407.973 464.19C408.816 465.777 409.238 467.6 409.238 469.658C409.238 471.717 408.816 473.558 407.973 475.183C407.13 476.807 405.971 478.072 404.495 478.977C403.019 479.882 401.389 480.335 399.603 480.335C398.041 480.335 396.652 480.019 395.437 479.386C394.222 478.754 393.23 477.966 392.461 477.024V489.746H388.22V459.503H392.461V462.516C393.18 461.574 394.16 460.78 395.4 460.135C396.64 459.49 398.041 459.168 399.603 459.168ZM398.673 462.851C397.607 462.851 396.596 463.124 395.641 463.669C394.687 464.215 393.918 465.008 393.335 466.05C392.752 467.092 392.461 468.319 392.461 469.733C392.461 471.146 392.752 472.38 393.335 473.434C393.918 474.488 394.687 475.288 395.641 475.834C396.596 476.379 397.607 476.652 398.673 476.652C399.764 476.652 400.787 476.373 401.742 475.815C402.697 475.257 403.466 474.445 404.049 473.378C404.631 472.312 404.923 471.072 404.923 469.658C404.923 468.245 404.631 467.023 404.049 465.994C403.466 464.965 402.697 464.184 401.742 463.651C400.787 463.117 399.764 462.851 398.673 462.851Z" fill="#0E7B5C"/>
<path d="M423.953 459.168C425.739 459.168 427.369 459.608 428.845 460.489C430.321 461.369 431.48 462.603 432.323 464.19C433.166 465.777 433.588 467.6 433.588 469.658C433.588 471.717 433.166 473.558 432.323 475.183C431.48 476.807 430.321 478.072 428.845 478.977C427.369 479.882 425.739 480.335 423.953 480.335C422.391 480.335 421.002 480.019 419.787 479.386C418.572 478.754 417.58 477.966 416.811 477.024V489.746H412.57V459.503H416.811V462.516C417.53 461.574 418.51 460.78 419.75 460.135C420.99 459.49 422.391 459.168 423.953 459.168ZM423.023 462.851C421.957 462.851 420.946 463.124 419.991 463.669C419.037 464.215 418.268 465.008 417.685 466.05C417.102 467.092 416.811 468.319 416.811 469.733C416.811 471.146 417.102 472.38 417.685 473.434C418.268 474.488 419.037 475.288 419.991 475.834C420.946 476.379 421.957 476.652 423.023 476.652C424.114 476.652 425.137 476.373 426.092 475.815C427.047 475.257 427.816 474.445 428.399 473.378C428.981 472.312 429.273 471.072 429.273 469.658C429.273 468.245 428.981 467.023 428.399 465.994C427.816 464.965 427.047 464.184 426.092 463.651C425.137 463.117 424.114 462.851 423.023 462.851Z" fill="#0E7B5C"/>
</svg>
